<?xml version="1.0" encoding="utf-8"?>
<!-- Generator: Adobe Illustrator 23.0.1, SVG Export Plug-In . SVG Version: 6.00 Build 0)  -->
<svg version="1.1" id="Capa_1" xmlns="http://www.w3.org/2000/svg" xmlns:xlink="http://www.w3.org/1999/xlink" x="0px" y="0px"
	 viewBox="0 0 60 60" style="enable-background:new 0 0 60 60;" xml:space="preserve">
<style type="text/css">
	.st0{fill:#333333;}
</style>
<g>
	<g>
		<path class="st0" d="M59.1,49.4c-0.5,0-0.9,0.4-0.9,0.9v5.9c0,0.1-0.1,0.1-0.1,0.1h-3.3V43.5c0-0.5-0.4-0.9-0.9-0.9S53,43,53,43.5
			v12.8h-6.5l1.7-1.9c0.3-0.3,0.4-0.7,0.3-1.1c0,0,0,0,0,0l-2-11.6l0.4-0.5l0.1,0.1c0.3,0.2,0.7,0.3,1.1,0.2
			c0.4-0.1,0.7-0.4,0.9-0.7v0l2-4l4.6,1.8c0.2,0.1,2.5,1.2,2.5,4v3.8c0,0.5,0.4,0.9,0.9,0.9s0.9-0.4,0.9-0.9v-3.8
			c0-4.1-3.5-5.5-3.6-5.6c0,0,0,0,0,0l-7.8-3v-1.6c1.2-1,2.1-2.4,2.3-4c0.6-0.1,1.2-0.3,1.6-0.7c0.7-0.6,1.1-1.4,1.1-2.3
			c0-0.7-0.2-1.4-0.7-1.9v-2.4c0-4.6-3.8-8.4-8.4-8.4c-2.1,0-4,0.8-5.5,2c0-0.7-0.3-1.3-0.7-1.8v-2.4c0-4.6-3.8-8.4-8.4-8.4
			c-4.6,0-8.4,3.8-8.4,8.4v2.4c-0.4,0.5-0.7,1.1-0.7,1.8c-0.9-0.8-2.1-1.4-3.3-1.7c-0.5-0.1-1,0.2-1.1,0.6c-0.1,0.5,0.2,1,0.6,1.1
			c2.9,0.8,5,3.4,5,6.4v1.3c0,0-0.2,0-0.2,0c0-0.2-0.1-0.4-0.2-0.6c-0.2-0.3-0.6-0.7-1.9-2.1c-0.5-0.5-1.2-0.6-1.8-0.2
			c-2.2,1.5-4.9,2.2-7.4,2c-0.8,0-1.3,0.3-1.5,0.9c0,0-0.2,0-0.2,0v-1.3c0-2.9,1.9-5.5,4.7-6.4c0.5-0.1,0.7-0.6,0.6-1.1
			c-0.1-0.5-0.6-0.7-1.1-0.6c-1.7,0.5-3.2,1.6-4.3,3C7.5,17.3,7,19.1,7,20.9v2.4c-0.4,0.5-0.7,1.2-0.7,1.9c0,1.5,1.1,2.8,2.7,3
			c0.3,1.6,1.1,3.1,2.4,4.1v1.5l-7.8,3c0,0,0,0,0,0C3.5,36.9,0,38.4,0,42.4v13.8c0,1.1,0.9,1.9,1.9,1.9H29c0.4,0,0.7-0.1,1-0.3
			c0.3,0.2,0.6,0.3,1,0.3h27.1c1.1,0,1.9-0.9,1.9-1.9v-5.9C60,49.8,59.6,49.4,59.1,49.4z M8.9,26.4C8.4,26.2,8,25.7,8,25.2
			c0-0.5,0.4-0.9,0.8-1.1V26.4z M49.5,36l-1.7,3.5c0,0-1.9-1.4-1.9-1.4c0.8-1,0.4-0.5,2.2-2.7L49.5,36z M44.6,36.9l-2.3-2.8v-0.8
			c0.7,0.3,1.5,0.4,2.3,0.4c0,0,0,0,0,0h0c0.8,0,1.6-0.1,2.3-0.4v0.9L44.6,36.9z M45.6,40.1l-0.3,0.5h-1.4l-0.3-0.5l1-0.7L45.6,40.1
			z M30,26.3l-2.3-2.8v-0.8c0.7,0.3,1.5,0.4,2.3,0.4c0,0,0,0,0,0h0c0.8,0,1.6-0.1,2.3-0.4v0.9L30,26.3z M31,29.5L30.7,30h-1.4
			L29,29.5l1-0.7L31,29.5z M23.1,17.5c0.1,0,0.3,0.1,0.4,0.1c0.3,1.6,1.1,3.1,2.4,4.1v1.5l-1.8,0.7c-0.1-0.2-0.2-0.4-0.4-0.6v-2.4
			C23.8,19.7,23.5,18.6,23.1,17.5z M34.7,16.6c0,2.6-2.1,4.7-4.7,4.7c-2.9,0-4.8-2.2-4.8-4.7v-4.1c2.8,0.1,5.7-0.7,8-2.2
			c0.8,0.8,1.3,1.3,1.5,1.6C34.7,14.1,34.7,14.9,34.7,16.6z M36.3,17.6c0.1,0,0.3,0,0.4-0.1c-0.5,1-0.7,2.2-0.7,3.4v2.4
			c-0.1,0.2-0.3,0.3-0.3,0.5L34,23.2v-1.6C35.2,20.6,36.1,19.2,36.3,17.6z M26.6,24.9l2.2,2.7l-1.5,1c0,0,0,0,0,0l-0.5,0.3l-1.7-3.5
			L26.6,24.9z M32,26.6l1.4-1.7l1.5,0.6l-1.7,3.5l-0.5-0.3c0,0,0,0,0,0l-1.5-1L32,26.6z M32.5,30.5L32.5,30.5
			c0.4,0.3,0.8,0.4,1.2,0.3c0.4-0.1,0.7-0.4,0.9-0.7v0l1.5-3c0.5,0.6,1.2,1,2,1.1c0.3,1.7,1.2,3.1,2.5,4.1v1.5l-7.5,2.9l-1-5.6
			L32.5,30.5z M41.1,35.5l2.2,2.7c-0.9,0.7-1.9,1.3-1.9,1.4L39.6,36L41.1,35.5z M49.2,27.2c0,2.5-2,4.7-4.7,4.7
			c-3,0-4.8-2.3-4.8-4.7v-4.1c2.8,0.1,5.6-0.7,8-2.2c0.8,0.8,1.3,1.3,1.5,1.6C49.2,24.7,49.2,25.5,49.2,27.2z M51.8,25.2
			c0,0.5-0.3,1-0.8,1.2V24C51.5,24.2,51.8,24.7,51.8,25.2z M37.8,20.9c0-3.7,3-6.7,6.7-6.7c3.7,0,6.7,3,6.7,6.7v1.3c0,0-0.1,0-0.2,0
			c0-0.2-0.1-0.4-0.2-0.6c-0.2-0.3-0.6-0.7-1.9-2.1c-0.5-0.5-1.2-0.6-1.8-0.2c-2.2,1.4-4.9,2.2-7.5,2c-0.7,0-1.3,0.3-1.5,0.9
			c0,0-0.2,0-0.2,0L37.8,20.9L37.8,20.9z M38,24.1v2.3c-0.5-0.2-0.8-0.7-0.8-1.2C37.1,24.7,37.5,24.3,38,24.1z M37.3,14.6
			c0,0.4-0.2,0.7-0.4,1c-0.1,0.1-0.3,0.2-0.4,0.2v-2.4C37,13.6,37.3,14.1,37.3,14.6z M29.9,3.7c3.7,0,6.7,3,6.7,6.7v1.3
			c0,0-0.1,0-0.2,0c0-0.3-0.1-0.4-0.2-0.6c-0.2-0.3-0.7-0.8-1.9-2.1c-0.5-0.5-1.2-0.6-1.8-0.2c-2.3,1.5-5.1,2.2-7.6,2
			c-0.6,0-1.2,0.3-1.4,0.9c0,0-0.2,0-0.2,0v-1.3h0C23.3,6.6,26.3,3.7,29.9,3.7z M23.4,13.5v2.3c-0.5-0.2-0.8-0.7-0.8-1.2
			C22.6,14.1,23,13.7,23.4,13.5z M21.9,24c0.5,0.2,0.8,0.6,0.8,1.1c0,0.6-0.3,1.1-0.8,1.3V24z M21.8,28.2c0.8-0.1,1.6-0.5,2.1-1.2
			l1.5,3.1c0,0,0,0,0,0c0.2,0.4,0.5,0.6,0.9,0.7c0.4,0.1,0.8,0,1.1-0.2l0.1-0.1l0.4,0.5l-1,5.6l-7.5-2.9v-1.6h0
			C20.7,31.2,21.5,29.8,21.8,28.2z M15.4,36.9l-2.3-2.8v-0.8c0.7,0.3,1.5,0.4,2.3,0.4c0,0,0,0,0,0c0.8,0,1.6-0.2,2.3-0.4v0.9
			L15.4,36.9z M16.5,40.1l-0.3,0.5h-1.4l-0.3-0.5l1-0.7L16.5,40.1z M18.9,35.5l1.5,0.6l-1.7,3.5l-0.5-0.3c0,0,0,0,0,0l-1.5-1
			L18.9,35.5z M10.6,27.2v-4.1c2.8,0.1,5.7-0.7,8-2.2c0.8,0.8,1.3,1.3,1.5,1.6c0,2.2,0,3,0,4.7c0,2.6-2.1,4.7-4.7,4.7
			C12.6,31.9,10.6,29.6,10.6,27.2z M12,35.5l2.2,2.7l-1.5,1c0,0,0,0,0,0l-0.5,0.3L10.5,36L12,35.5z M7,56.3V43.5
			c0-0.5-0.4-0.9-0.9-0.9S5.2,43,5.2,43.5v12.8H1.9c-0.1,0-0.1-0.1-0.1-0.1V42.4c0-2.8,2.4-3.9,2.5-4l4.6-1.8l2,4c0,0,0,0,0,0
			c0.2,0.4,0.5,0.6,0.9,0.7c0.4,0.1,0.8,0,1.1-0.2l0.1-0.1l0.4,0.5l-2,11.6c0,0,0,0,0,0c-0.1,0.4,0.1,0.8,0.3,1.1l1.7,1.9L7,56.3
			L7,56.3z M13.1,53.4l1.9-11h0.9l1.9,11l-2.3,2.5L13.1,53.4z M29.1,56.2c0,0.1-0.1,0.1-0.1,0.1h-3.3V43.5c0-0.5-0.4-0.9-0.9-0.9
			s-0.9,0.4-0.9,0.9v12.8h-6.5l1.7-1.9c0.3-0.3,0.4-0.7,0.3-1.1c0,0,0,0,0,0l-2-11.6l0.4-0.5l0.1,0.1c0.2,0.2,0.5,0.3,0.8,0.3
			c0.5,0,1-0.3,1.2-0.8v0l2-4l4.6,1.8c1.3,0.6,2.5,2.1,2.5,4L29.1,56.2L29.1,56.2z M30,39.2c-0.4-0.6-0.8-1.1-1.4-1.6l1-5.9h0.9
			l1,5.9C30.8,38.1,30.4,38.7,30,39.2z M36.1,56.3L36.1,56.3V43.5c0-0.5-0.4-0.9-0.9-0.9s-0.9,0.4-0.9,0.9v12.8H31
			c-0.1,0-0.1-0.1-0.1-0.1V42.4c0-1,0.3-2,1-2.8c0.5-0.5,1.1-1,1.5-1.1l4.6-1.8l2,4c0,0,0,0,0,0c0.2,0.4,0.5,0.6,0.9,0.7
			c0.4,0.1,0.8,0,1.1-0.2l0.1-0.1l0.4,0.5l-2,11.6c0,0,0,0,0,0c-0.1,0.4,0.1,0.8,0.3,1.1l1.7,1.9L36.1,56.3L36.1,56.3z M42.3,53.4
			l1.9-11H45l1.9,11l-2.3,2.5L42.3,53.4z"/>
	</g>
</g>
</svg>
