<?xml version="1.0" encoding="utf-8"?>
<!-- Generator: Adobe Illustrator 23.0.1, SVG Export Plug-In . SVG Version: 6.00 Build 0)  -->
<svg version="1.1" id="Layer_1" xmlns="http://www.w3.org/2000/svg" xmlns:xlink="http://www.w3.org/1999/xlink" x="0px" y="0px"
	 viewBox="0 0 50 50" style="enable-background:new 0 0 50 50;" xml:space="preserve">
<style type="text/css">
	.st0{fill:#333333;}
</style>
<g>
	<path class="st0" d="M40,29.2V17.5c0-5.5-4.1-10.1-9.5-10.7l2.8-5.5c0.1-0.3,0.1-0.6,0-0.8C33.1,0.1,32.8,0,32.5,0h-15
		c-0.3,0-0.6,0.1-0.7,0.4c-0.2,0.2-0.2,0.6,0,0.8l2.8,5.5C14.1,7.4,10,12,10,17.5v15h1.7v-15c0-5.1,4.1-9.2,9.2-9.2h8.3
		c2.4,0,4.8,1,6.5,2.7c1.7,1.7,2.7,4.1,2.7,6.5v11.7H40z M28.7,6.7h-7.3l-2.5-5h12.3L28.7,6.7z"/>
	<path class="st0" d="M17.9,12.4c0.5-0.3,0.9-0.5,1.5-0.6L19,10.2c-0.7,0.2-1.3,0.4-1.9,0.8L17.9,12.4z"/>
	<path class="st0" d="M13.3,20.8H15v-3.3c0-1.6,0.6-3.1,1.8-4.2l-1.2-1.2c-1.5,1.4-2.3,3.4-2.3,5.4V20.8z"/>
	<path class="st0" d="M2.4,41l14.1,7.7c1.6,0.9,3.4,1.3,5.2,1.3h27.4c0.5,0,0.8-0.4,0.8-0.8v-15c0-0.5-0.4-0.8-0.8-0.8h-6.4
		l-0.1-0.1c-1-0.8-2.1-1.4-3.2-1.8c-4-1.6-8.6-1.2-12.3,1.1h-6.3c-1.3,0-2.6,0.6-3.4,1.7c-0.8,1.1-1,2.4-0.6,3.7L6.6,32.8
		C5,32,3.2,32.2,1.8,33.2C0.7,34.1,0,35.4,0,36.9V37C0,38.6,0.9,40.2,2.4,41z M43.3,35h5v13.3h-5V35z M1.7,36.9
		c0-0.9,0.5-1.8,1.2-2.4c0.8-0.6,2-0.7,2.9-0.3l13,6.5c0.1,0.1,0.2,0.1,0.4,0.1h12.5v-1.7H20.8c-1.4,0-2.5-1.1-2.5-2.5
		s1.1-2.5,2.5-2.5h6.6c0.2,0,0.3,0,0.5-0.1c3.3-2.2,7.4-2.6,11-1.1c1,0.4,2,0.9,2.8,1.6v13.8H21.7c-1.5,0-3-0.4-4.4-1.1L3.2,39.5
		C2.2,39,1.7,38,1.7,36.9L1.7,36.9z"/>
	<path class="st0" d="M45,44.2h1.7v1.7H45V44.2z"/>
	<path class="st0" d="M25.8,29.2v-1.7h0.8c1.8,0,3.3-1.5,3.3-3.3s-1.5-3.3-3.3-3.3h-3.3c-0.9,0-1.7-0.7-1.7-1.7s0.7-1.7,1.7-1.7h5.8
		v-1.7h-3.3v-1.7h-1.7v1.7h-0.8c-1.8,0-3.3,1.5-3.3,3.3s1.5,3.3,3.3,3.3h3.3c0.9,0,1.7,0.7,1.7,1.7s-0.7,1.7-1.7,1.7h-5.8v1.7h3.3
		v1.7H25.8z"/>
</g>
</svg>
