<?xml version="1.0" encoding="utf-8"?>
<!-- Generator: Adobe Illustrator 23.0.1, SVG Export Plug-In . SVG Version: 6.00 Build 0)  -->
<svg version="1.1" id="Layer_1" xmlns="http://www.w3.org/2000/svg" xmlns:xlink="http://www.w3.org/1999/xlink" x="0px" y="0px"
	 viewBox="0 0 50 50" style="enable-background:new 0 0 50 50;" xml:space="preserve">
<style type="text/css">
	.st0{fill:#333333;}
</style>
<g>
	<path class="st0" d="M33.9,3.2c-4.9,0-8.9,4-8.9,8.9h1.6c0-4,3.3-7.3,7.3-7.3V3.2z"/>
	<path class="st0" d="M41.1,12.1c0,4-3.3,7.3-7.3,7.3V21c4.9,0,8.9-4,8.9-8.9H41.1z"/>
	<path class="st0" d="M46,12.1C46,5.4,40.5,0,33.9,0c-4.6,0-8.7,2.6-10.7,6.5H4.8C4.4,6.5,4,6.8,4,7.3v41.9C4,49.6,4.4,50,4.8,50
		h35.5c0.4,0,0.8-0.4,0.8-0.8V21.8C44.1,19.5,46,16,46,12.1z M24.2,19.4H8.9v-8.1h12.9c0,0.3,0,0.5,0,0.8
		C21.8,14.8,22.7,17.3,24.2,19.4z M39.5,48.4H5.6V8.1h16.8c-0.2,0.5-0.3,1.1-0.5,1.6h-14c-0.4,0-0.8,0.4-0.8,0.8v9.7
		c0,0.4,0.4,0.8,0.8,0.8h17.6c2.2,2,5,3.2,8.2,3.2c2,0,4-0.5,5.6-1.4V48.4z M33.9,22.6c-5.8,0-10.5-4.7-10.5-10.5S28.1,1.6,33.9,1.6
		s10.5,4.7,10.5,10.5S39.7,22.6,33.9,22.6z"/>
	<path class="st0" d="M34.7,16.1c1.3,0,2.4-1.1,2.4-2.4s-1.1-2.4-2.4-2.4h-1.6c-0.4,0-0.8-0.4-0.8-0.8c0-0.4,0.4-0.8,0.8-0.8h4V8.1
		h-2.4V6.5h-1.6v1.6c-1.3,0-2.4,1.1-2.4,2.4s1.1,2.4,2.4,2.4h1.6c0.4,0,0.8,0.4,0.8,0.8c0,0.4-0.4,0.8-0.8,0.8h-4v1.6h2.4v1.6h1.6
		V16.1z"/>
	<path class="st0" d="M12.9,24.2H8.1c-0.4,0-0.8,0.4-0.8,0.8v4.8c0,0.4,0.4,0.8,0.8,0.8h4.8c0.4,0,0.8-0.4,0.8-0.8V25
		C13.7,24.6,13.3,24.2,12.9,24.2z M12.1,29H8.9v-3.2h3.2V29z"/>
	<path class="st0" d="M21,24.2h-4.8c-0.4,0-0.8,0.4-0.8,0.8v4.8c0,0.4,0.4,0.8,0.8,0.8H21c0.4,0,0.8-0.4,0.8-0.8V25
		C21.8,24.6,21.4,24.2,21,24.2z M20.2,29h-3.2v-3.2h3.2V29z"/>
	<path class="st0" d="M29,24.2h-4.8c-0.4,0-0.8,0.4-0.8,0.8v4.8c0,0.4,0.4,0.8,0.8,0.8H29c0.4,0,0.8-0.4,0.8-0.8V25
		C29.8,24.6,29.5,24.2,29,24.2z M28.2,29H25v-3.2h3.2V29z"/>
	<path class="st0" d="M12.9,32.3H8.1c-0.4,0-0.8,0.4-0.8,0.8v4.8c0,0.4,0.4,0.8,0.8,0.8h4.8c0.4,0,0.8-0.4,0.8-0.8v-4.8
		C13.7,32.6,13.3,32.3,12.9,32.3z M12.1,37.1H8.9v-3.2h3.2V37.1z"/>
	<path class="st0" d="M21,32.3h-4.8c-0.4,0-0.8,0.4-0.8,0.8v4.8c0,0.4,0.4,0.8,0.8,0.8H21c0.4,0,0.8-0.4,0.8-0.8v-4.8
		C21.8,32.6,21.4,32.3,21,32.3z M20.2,37.1h-3.2v-3.2h3.2V37.1z"/>
	<path class="st0" d="M29,32.3h-4.8c-0.4,0-0.8,0.4-0.8,0.8v4.8c0,0.4,0.4,0.8,0.8,0.8H29c0.4,0,0.8-0.4,0.8-0.8v-4.8
		C29.8,32.6,29.5,32.3,29,32.3z M28.2,37.1H25v-3.2h3.2V37.1z"/>
	<path class="st0" d="M31.5,33.1V46c0,0.4,0.4,0.8,0.8,0.8h4.8c0.4,0,0.8-0.4,0.8-0.8V33.1c0-0.4-0.4-0.8-0.8-0.8h-4.8
		C31.8,32.3,31.5,32.6,31.5,33.1z M33.1,33.9h3.2v11.3h-3.2V33.9z"/>
	<path class="st0" d="M12.9,40.3H8.1c-0.4,0-0.8,0.4-0.8,0.8V46c0,0.4,0.4,0.8,0.8,0.8h4.8c0.4,0,0.8-0.4,0.8-0.8v-4.8
		C13.7,40.7,13.3,40.3,12.9,40.3z M12.1,45.2H8.9v-3.2h3.2V45.2z"/>
	<path class="st0" d="M21,40.3h-4.8c-0.4,0-0.8,0.4-0.8,0.8V46c0,0.4,0.4,0.8,0.8,0.8H21c0.4,0,0.8-0.4,0.8-0.8v-4.8
		C21.8,40.7,21.4,40.3,21,40.3z M20.2,45.2h-3.2v-3.2h3.2V45.2z"/>
	<path class="st0" d="M29,40.3h-4.8c-0.4,0-0.8,0.4-0.8,0.8V46c0,0.4,0.4,0.8,0.8,0.8H29c0.4,0,0.8-0.4,0.8-0.8v-4.8
		C29.8,40.7,29.5,40.3,29,40.3z M28.2,45.2H25v-3.2h3.2V45.2z"/>
</g>
</svg>
