<?xml version="1.0" encoding="utf-8"?>
<!-- Generator: Adobe Illustrator 23.0.1, SVG Export Plug-In . SVG Version: 6.00 Build 0)  -->
<svg version="1.1" id="Capa_1" xmlns="http://www.w3.org/2000/svg" xmlns:xlink="http://www.w3.org/1999/xlink" x="0px" y="0px"
	 viewBox="0 0 50 50" style="enable-background:new 0 0 50 50;" xml:space="preserve">
<style type="text/css">
	.st0{fill:#333333;}
</style>
<g>
	<path class="st0" d="M12.1,33.8c0.5,0,0.9,0.4,0.9,0.9c0,0.4,0.3,0.7,0.7,0.7c0.4,0,0.7-0.3,0.7-0.7c0-1-0.7-1.9-1.6-2.2v-0.2
		c0-0.4-0.3-0.7-0.7-0.7c-0.4,0-0.7,0.3-0.7,0.7v0.2c-0.9,0.3-1.6,1.2-1.6,2.2c0,1.3,1.1,2.4,2.4,2.4c0.5,0,0.9,0.4,0.9,0.9
		c0,0.5-0.4,0.9-0.9,0.9s-0.9-0.4-0.9-0.9c0-0.4-0.3-0.7-0.7-0.7c-0.4,0-0.7,0.3-0.7,0.7c0,1,0.7,1.9,1.6,2.2v0.2
		c0,0.4,0.3,0.7,0.7,0.7s0.7-0.3,0.7-0.7v-0.2c0.9-0.3,1.6-1.2,1.6-2.2c0-1.3-1.1-2.4-2.4-2.4c-0.5,0-0.9-0.4-0.9-0.9
		C11.2,34.2,11.6,33.8,12.1,33.8z"/>
	<path class="st0" d="M18.2,32.6c-0.2-0.3-0.7-0.5-1-0.2c-0.3,0.2-0.5,0.7-0.2,1c0.5,0.9,0.8,1.9,0.8,3c0,3.2-2.6,5.7-5.7,5.7
		s-5.7-2.6-5.7-5.7c0-3.2,2.6-5.7,5.7-5.7c1.1,0,2.1,0.3,3,0.9c0.3,0.2,0.8,0.1,1-0.2c0.2-0.3,0.1-0.8-0.2-1
		c-1.1-0.7-2.5-1.1-3.8-1.1c-4,0-7.2,3.2-7.2,7.2s3.2,7.2,7.2,7.2s7.2-3.2,7.2-7.2C19.3,35,18.9,33.7,18.2,32.6L18.2,32.6z"/>
	<path class="st0" d="M46,4.9h-2.5V2.4c0-1.3-1.1-2.4-2.4-2.4H10.4C9.1,0,8.1,1.1,8.1,2.4v8.2c0,0.4,0.3,0.7,0.7,0.7
		c0.4,0,0.7-0.3,0.7-0.7V2.4c0-0.5,0.4-0.9,0.9-0.9h30.7c0.5,0,0.9,0.4,0.9,0.9v40.4c0,0.5-0.4,0.9-0.9,0.9H19.5
		c1.9-1.9,3-4.5,3-7.4c0-1.5-0.3-2.9-0.9-4.1c0,0,0.1,0,0.1,0h6.5c0.4,0,0.7-0.3,0.7-0.7c0-0.4-0.3-0.7-0.7-0.7h-6.5
		c-0.3,0-0.5,0.2-0.7,0.4c-1.8-3.1-5.2-5.3-9.1-5.3c-0.9,0-1.7,0.1-2.5,0.3V13.5c0-0.4-0.3-0.7-0.7-0.7s-0.7,0.3-0.7,0.7v13.1
		c-3.8,1.6-6.5,5.3-6.5,9.7c0,5.8,4.7,10.4,10.4,10.4c0.3,0,0.6,0,0.9,0v0.9c0,1.3,1.1,2.4,2.4,2.4H46c1.3,0,2.4-1.1,2.4-2.4V7.2
		C48.4,5.9,47.3,4.9,46,4.9L46,4.9z M12.1,45.3c-4.9,0-9-4-9-9s4-9,9-9s9,4,9,9S17,45.3,12.1,45.3z M46.9,47.6
		c0,0.5-0.4,0.9-0.9,0.9H15.3c-0.5,0-0.9-0.4-0.9-0.9v-1.2c1.2-0.3,2.2-0.7,3.2-1.4h23.5c1.3,0,2.4-1.1,2.4-2.4V6.3H46
		c0.5,0,0.9,0.4,0.9,0.9V47.6z"/>
	<path class="st0" d="M29.1,3.2h-8.1c-0.8,0-1.5,0.7-1.5,1.5v1.7c0,0.8,0.7,1.5,1.5,1.5h8.1c0.8,0,1.5-0.7,1.5-1.5V4.7
		C30.6,3.9,29.9,3.2,29.1,3.2z M29.1,6.4C29.1,6.4,29.1,6.5,29.1,6.4l-8.2,0c0,0,0,0,0,0V4.7c0,0,0,0,0,0h8.1c0,0,0,0,0,0V6.4z"/>
	<path class="st0" d="M35.5,35.6H29c-0.8,0-1.5,0.7-1.5,1.5v1.7c0,0.8,0.7,1.5,1.5,1.5h6.5c0.8,0,1.5-0.7,1.5-1.5v-1.7
		C37.1,36.3,36.4,35.6,35.5,35.6L35.5,35.6z M35.6,38.8C35.6,38.8,35.6,38.8,35.6,38.8l-6.6,0c0,0,0,0,0,0v-1.7c0,0,0,0,0,0h6.5
		c0,0,0,0,0,0L35.6,38.8z"/>
	<path class="st0" d="M36.3,11.3H21.8c-0.4,0-0.7,0.3-0.7,0.7c0,0.4,0.3,0.7,0.7,0.7h14.6c0.4,0,0.7-0.3,0.7-0.7
		C37.1,11.7,36.7,11.3,36.3,11.3z"/>
	<path class="st0" d="M16.1,16h1.7c0.8,0,1.5-0.7,1.5-1.5v-1.7c0-0.8-0.7-1.5-1.5-1.5h-1.7c-0.8,0-1.5,0.7-1.5,1.5v1.7
		C14.6,15.3,15.2,16,16.1,16z M16,12.8C16,12.8,16,12.8,16,12.8l1.7,0c0,0,0,0,0,0v1.7c0,0,0,0,0,0h-1.7c0,0,0,0,0,0V12.8z"/>
	<path class="st0" d="M21.8,16h6.5c0.4,0,0.7-0.3,0.7-0.7c0-0.4-0.3-0.7-0.7-0.7h-6.5c-0.4,0-0.7,0.3-0.7,0.7
		C21,15.7,21.4,16,21.8,16z"/>
	<path class="st0" d="M36.3,19.4H21.8c-0.4,0-0.7,0.3-0.7,0.7c0,0.4,0.3,0.7,0.7,0.7h14.6c0.4,0,0.7-0.3,0.7-0.7
		C37.1,19.7,36.7,19.4,36.3,19.4z"/>
	<path class="st0" d="M14.6,22.6c0,0.8,0.7,1.5,1.5,1.5h1.7c0.8,0,1.5-0.7,1.5-1.5v-1.7c0-0.8-0.7-1.5-1.5-1.5h-1.7
		c-0.8,0-1.5,0.7-1.5,1.5V22.6z M16,20.9C16,20.9,16,20.9,16,20.9l1.7,0c0,0,0,0,0,0v1.7c0,0,0,0,0,0h-1.7c0,0,0,0,0,0V20.9z"/>
	<path class="st0" d="M21.8,24.1h6.5c0.4,0,0.7-0.3,0.7-0.7c0-0.4-0.3-0.7-0.7-0.7h-6.5c-0.4,0-0.7,0.3-0.7,0.7
		C21,23.8,21.4,24.1,21.8,24.1z"/>
	<path class="st0" d="M36.3,27.5H21.8c-0.4,0-0.7,0.3-0.7,0.7c0,0.4,0.3,0.7,0.7,0.7h14.6c0.4,0,0.7-0.3,0.7-0.7
		C37.1,27.8,36.7,27.5,36.3,27.5z"/>
</g>
</svg>
