<?xml version="1.0" encoding="utf-8"?>
<!-- Generator: Adobe Illustrator 23.0.1, SVG Export Plug-In . SVG Version: 6.00 Build 0)  -->
<svg version="1.1" id="Layer_1" xmlns="http://www.w3.org/2000/svg" xmlns:xlink="http://www.w3.org/1999/xlink" x="0px" y="0px"
	 viewBox="0 0 60 60" style="enable-background:new 0 0 60 60;" xml:space="preserve">
<style type="text/css">
	.st0{fill:#333333;}
</style>
<g>
	<g>
		<path class="st0" d="M49.4,33.2h-8.8v-6.1c0-0.3-0.3-0.6-0.6-0.6h-4.3c0.5-3.2-1.6-6.1-4.8-6.7c-3.2-0.5-6.1,1.6-6.7,4.8
			c-0.1,0.6-0.1,1.3,0,1.9H20c-0.3,0-0.6,0.3-0.6,0.6v6.1h-8.8c-0.3,0-0.6,0.3-0.6,0.6v25.4c0,0.3,0.3,0.6,0.6,0.6h38.8
			c0.3,0,0.6-0.3,0.6-0.6V33.8C50,33.5,49.7,33.2,49.4,33.2L49.4,33.2L49.4,33.2z M37.1,44.5H19v-0.8h1h0c0,0,0,0,0,0h20h0
			c0,0,0,0,0,0h1v0.8H37.1z M30,21c2.6,0,4.6,2.1,4.6,4.6c0,0.5-0.1,0.9-0.2,1.4c0,0,0,0,0,0c-0.8,2.4-3.4,3.8-5.8,3
			c-1.4-0.5-2.6-1.6-3-3c0,0,0,0,0,0c-0.8-2.4,0.6-5,3.1-5.8C29.1,21.1,29.5,21,30,21z M20.6,27.7h4c1.1,3,4.5,4.5,7.5,3.3
			c1.5-0.6,2.7-1.8,3.3-3.3h4v14.8H20.6V27.7z M11.2,34.4h8.2v8h-1c-0.3,0-0.6,0.3-0.6,0.6v2c0,0.3,0.3,0.6,0.6,0.6h1v12.9h-8.2
			V34.4z M20.6,45.7h1.7v12.9h-1.7V45.7z M23.5,45.7h5.9v12.9h-5.9V45.7z M30.6,58.6V45.7h5.9v12.9L30.6,58.6z M37.7,58.6V45.7h1.7
			v12.9L37.7,58.6z M48.8,58.6h-8.2V45.7h1c0.3,0,0.6-0.3,0.6-0.6v-2c0-0.3-0.3-0.6-0.6-0.6h-1v-8h8.2V58.6z"/>
		<path class="st0" d="M43.7,41h2c0.3,0,0.6-0.3,0.6-0.6v-2c0-0.3-0.3-0.6-0.6-0.6h-2c-0.3,0-0.6,0.3-0.6,0.6v2
			C43.1,40.8,43.4,41,43.7,41z M44.3,39h0.8v0.8h-0.8V39z"/>
		<path class="st0" d="M43.7,45.7h2c0.3,0,0.6-0.3,0.6-0.6v-2c0-0.3-0.3-0.6-0.6-0.6h-2c-0.3,0-0.6,0.3-0.6,0.6v2
			C43.1,45.4,43.4,45.7,43.7,45.7z M44.3,43.6h0.8v0.8h-0.8V43.6z"/>
		<path class="st0" d="M43.7,50.3h2c0.3,0,0.6-0.3,0.6-0.6v-2c0-0.3-0.3-0.6-0.6-0.6h-2c-0.3,0-0.6,0.3-0.6,0.6v2
			C43.1,50,43.4,50.3,43.7,50.3z M44.3,48.3h0.8v0.8h-0.8V48.3z"/>
		<path class="st0" d="M43.7,54.9h2c0.3,0,0.6-0.3,0.6-0.6v-2c0-0.3-0.3-0.6-0.6-0.6h-2c-0.3,0-0.6,0.3-0.6,0.6v2
			C43.1,54.7,43.4,54.9,43.7,54.9z M44.3,52.9h0.8v0.8h-0.8V52.9z"/>
		<path class="st0" d="M16.3,37.8h-2c-0.3,0-0.6,0.3-0.6,0.6v2c0,0.3,0.3,0.6,0.6,0.6h2c0.3,0,0.6-0.3,0.6-0.6v-2
			C16.9,38.1,16.6,37.8,16.3,37.8L16.3,37.8L16.3,37.8z M15.7,39.8h-0.8V39h0.8V39.8z"/>
		<path class="st0" d="M16.3,42.5h-2c-0.3,0-0.6,0.3-0.6,0.6v2c0,0.3,0.3,0.6,0.6,0.6h2c0.3,0,0.6-0.3,0.6-0.6v-2
			C16.9,42.7,16.6,42.5,16.3,42.5z M15.7,44.5h-0.8v-0.8h0.8V44.5z"/>
		<path class="st0" d="M16.3,47.1h-2c-0.3,0-0.6,0.3-0.6,0.6v2c0,0.3,0.3,0.6,0.6,0.6h2c0.3,0,0.6-0.3,0.6-0.6v-2
			C16.9,47.4,16.6,47.1,16.3,47.1z M15.7,49.1h-0.8v-0.8h0.8V49.1z"/>
		<path class="st0" d="M16.3,51.7h-2c-0.3,0-0.6,0.3-0.6,0.6v2c0,0.3,0.3,0.6,0.6,0.6h2c0.3,0,0.6-0.3,0.6-0.6v-2
			C16.9,52,16.6,51.7,16.3,51.7z M15.7,53.8h-0.8v-0.8h0.8V53.8z"/>
		<path class="st0" d="M35.1,50.2c-0.3,0-0.6,0.3-0.6,0.6v4.5c0,0.3,0.3,0.6,0.6,0.6c0.3,0,0.6-0.3,0.6-0.6v-4.5
			C35.6,50.5,35.4,50.2,35.1,50.2z"/>
		<path class="st0" d="M28,26.2h1.4v1.4c0,0.3,0.3,0.6,0.6,0.6c0.3,0,0.6-0.3,0.6-0.6v-1.4H32c0.3,0,0.6-0.3,0.6-0.6S32.3,25,32,25
			h-1.4v-1.4c0-0.3-0.3-0.6-0.6-0.6c-0.3,0-0.6,0.3-0.6,0.6V25H28c-0.3,0-0.6,0.3-0.6,0.6S27.7,26.2,28,26.2L28,26.2z"/>
		<path class="st0" d="M22,36.7h2c0.3,0,0.6-0.3,0.6-0.6v-2c0-0.3-0.3-0.6-0.6-0.6h-2c-0.3,0-0.6,0.3-0.6,0.6v2
			C21.4,36.5,21.7,36.7,22,36.7z M22.6,34.7h0.8v0.8h-0.8V34.7z"/>
		<path class="st0" d="M26.7,36.7h2c0.3,0,0.6-0.3,0.6-0.6v-2c0-0.3-0.3-0.6-0.6-0.6h-2c-0.3,0-0.6,0.3-0.6,0.6v2
			C26.1,36.5,26.3,36.7,26.7,36.7z M27.3,34.7h0.8v0.8h-0.8V34.7z"/>
		<path class="st0" d="M31.3,36.7h2c0.3,0,0.6-0.3,0.6-0.6v-2c0-0.3-0.3-0.6-0.6-0.6h-2c-0.3,0-0.6,0.3-0.6,0.6v2
			C30.7,36.5,31,36.7,31.3,36.7z M31.9,34.7h0.8v0.8h-0.8V34.7z"/>
		<path class="st0" d="M35.9,36.7h2c0.3,0,0.6-0.3,0.6-0.6v-2c0-0.3-0.3-0.6-0.6-0.6h-2c-0.3,0-0.6,0.3-0.6,0.6v2
			C35.4,36.5,35.6,36.7,35.9,36.7z M36.5,34.7h0.8v0.8h-0.8V34.7z"/>
		<path class="st0" d="M22,41h2c0.3,0,0.6-0.3,0.6-0.6v-2c0-0.3-0.3-0.6-0.6-0.6h-2c-0.3,0-0.6,0.3-0.6,0.6v2
			C21.4,40.8,21.7,41,22,41z M22.6,39h0.8v0.8h-0.8V39z"/>
		<path class="st0" d="M26.7,41h2c0.3,0,0.6-0.3,0.6-0.6v-2c0-0.3-0.3-0.6-0.6-0.6h-2c-0.3,0-0.6,0.3-0.6,0.6v2
			C26.1,40.8,26.3,41,26.7,41z M27.3,39h0.8v0.8h-0.8V39z"/>
		<path class="st0" d="M31.3,41h2c0.3,0,0.6-0.3,0.6-0.6v-2c0-0.3-0.3-0.6-0.6-0.6h-2c-0.3,0-0.6,0.3-0.6,0.6v2
			C30.7,40.8,31,41,31.3,41z M31.9,39h0.8v0.8h-0.8V39z"/>
		<path class="st0" d="M35.9,41h2c0.3,0,0.6-0.3,0.6-0.6v-2c0-0.3-0.3-0.6-0.6-0.6h-2c-0.3,0-0.6,0.3-0.6,0.6v2
			C35.4,40.8,35.6,41,35.9,41z M36.5,39h0.8v0.8h-0.8V39z"/>
	</g>
	<path class="st0" d="M44.1,0v1.5h5.7L35.6,16.1H19.9L7.7,27.1l1,1.2l11.8-10.6h15.7L50.8,2.6v5.8h1.5V0H44.1z"/>
</g>
</svg>
