<?xml version="1.0" encoding="utf-8"?>
<!-- Generator: Adobe Illustrator 23.0.1, SVG Export Plug-In . SVG Version: 6.00 Build 0)  -->
<svg version="1.1" id="Layer_1" xmlns="http://www.w3.org/2000/svg" xmlns:xlink="http://www.w3.org/1999/xlink" x="0px" y="0px"
	 viewBox="0 0 60 55.3" style="enable-background:new 0 0 60 55.3;" xml:space="preserve">
<style type="text/css">
	.st0{fill:#333333;}
</style>
<title>recovered heart patient</title>
<path class="st0" d="M48.8,32.3c-1.5,0-2.8,0.7-3.7,1.9c-0.9-1.2-2.2-1.9-3.7-1.9c-1.5,0-2.8,0.6-3.6,1.8c-0.6,0.9-1,2.2-1,3.5
	c0,5.7,7.5,10.6,7.8,10.8c0.3,0.2,0.7,0.2,1,0c0.3-0.2,7.8-5.2,7.8-10.8C53.4,35,51.7,32.3,48.8,32.3z M45,46.6
	c-1.6-1.1-6.5-5-6.5-9c0-0.6,0.1-3.5,2.8-3.5c1.6,0,2.8,1.3,2.8,2.8c0,0.5,0.4,0.9,0.9,0.9s0.9-0.4,0.9-0.9c0-1.6,1.3-2.8,2.8-2.8
	c2.1,0,2.8,2.2,2.8,3.5C51.6,41.6,46.6,45.5,45,46.6z"/>
<path class="st0" d="M45,25.5c-5.7,0-10.9,3.3-13.4,8.4c-0.1,0-0.3-0.1-0.4-0.1l-1.1-2.5c2.6-2,3.4-5.1,3.6-6.6
	c1.8-0.5,3.4-2.6,4.1-5.4c0.4-1.5-0.2-2.9-1.3-3.5c-0.3-0.2-0.7-0.2-1-0.2c0.1-0.4,0.1-1,0.2-1.6c0.1-1.5,0.2-3.1,0.2-3.5
	c0-1.6-0.6-4.2-2.1-6.2C31.2,0.7,27,0,24,0c-3,0-7.1,0.7-9.9,3.9C12,6.4,11.5,9.5,11.7,11c0,0.1,0.1,0.3,0.1,0.7c0,0,0,0.1,0,0.1
	c0,0,0,0,0,0.1c0.2,0.9,0.5,2.5,0.9,3.7c-0.3,0-0.6,0.1-0.9,0.3c-1.1,0.6-1.6,2-1.2,3.4c0.7,2.8,2.3,4.9,4.1,5.4
	c0.2,1.5,0.9,4.5,3.5,6.5L17,33.7c-0.8,0.3-1.8,0.5-2.7,0.8C8.2,36.2,0,38.5,0,46v5.5c0,1.9,2.4,3.8,4.1,3.8h40.4c0.2,0,0.4,0,0.6,0
	c8.2,0,14.9-6.6,15-14.9S53.4,25.6,45,25.5C45.1,25.5,45.1,25.5,45,25.5L45,25.5z M15.5,5.1c1.9-2.2,4.8-3.3,8.5-3.3
	c3.8,0,6.6,1.2,8.4,3.5C33,6.1,33.5,7,33.8,8C33,7.2,32,6.4,31,5.8c-0.4-0.2-1-0.1-1.2,0.3c0,0.1-0.1,0.1-0.1,0.2c0,0-1.1,3.6-8,6.7
	c-2.6,1.2-4.6,1.4-6.2,0.7c-1-0.5-1.7-1.3-2.1-2.4l0,0c-0.1-0.3-0.1-0.5-0.1-0.6C13.1,8.6,14.7,6,15.5,5.1z M16.4,23.9
	c0-0.5-0.4-0.8-0.9-0.8h0c-1.1,0-2.6-1.6-3.2-4.1c-0.2-0.8,0.1-1.3,0.4-1.5c0.3-0.2,0.7,0.1,0.8,0.3c0.3,0.4,0.9,0.4,1.3,0
	c0.3-0.3,0.4-0.8,0.1-1.2c-0.1-0.2-0.3-0.8-0.5-1.5c0.1,0.1,0.3,0.1,0.4,0.2c0.9,0.4,1.8,0.6,2.7,0.6c1.5,0,3.1-0.4,4.9-1.2
	c5.5-2.5,7.6-5.3,8.5-6.8c0.4,0.3,0.8,0.6,1.1,1c1.2,1.2,1.9,2.5,1.9,3.8c-0.1,1.6-0.3,3.5-0.5,4c-0.3,0.4-0.1,1,0.3,1.2
	c0.4,0.2,0.8,0.2,1.1-0.2c0.2-0.2,0.5-0.5,0.8-0.3c0.3,0.2,0.6,0.7,0.4,1.5C35.5,21.4,34,23,32.9,23c-0.5,0-0.9,0.4-0.9,0.9
	c0,0.7-0.4,4.5-3.4,6.3c-1.2,0.7-2.7,1.1-4.4,1.1c-1.7,0-3.2-0.4-4.4-1.1C16.9,28.3,16.5,24.6,16.4,23.9z M18.4,34.8l1.3-2.7
	c1.3,0.6,2.8,1,4.5,1c1.7,0,3.1-0.3,4.4-0.9l1.2,2.7c0.1,0.2,0.3,0.4,0.5,0.5c0.2,0.1,0.4,0.1,0.6,0.2c-0.1,0.4-0.3,0.8-0.4,1.2
	c-1,1.8-3.2,3.8-6.4,3.8c-4.2,0-6.3-3.3-6.7-5.1c0.1,0,0.3-0.1,0.4-0.1C18.1,35.2,18.3,35,18.4,34.8L18.4,34.8z M4.1,53.6
	c-0.8,0-2.3-1.3-2.3-2.1V46c0-2.8,1.3-4.8,4.1-6.5c2.5-1.5,5.9-2.5,8.8-3.3c0.4-0.1,0.7-0.2,1.1-0.3c0.7,2.7,3.5,6.4,8.4,6.4
	c2.2,0,4.3-0.8,5.9-2.2c0,0.1,0,0.2,0,0.4c0,5.5,3,10.5,7.8,13.1H4.1z M45,53.6L45,53.6c-0.1,0-0.1,0-0.2,0h-0.4
	c-7.2-0.3-12.8-6.5-12.5-13.7c0.3-7.2,6.5-12.8,13.7-12.5c7.2,0.3,12.8,6.5,12.5,13.7C57.9,48.1,52.1,53.6,45,53.6L45,53.6z"/>
</svg>
