<?xml version="1.0" encoding="utf-8"?>
<!-- Generator: Adobe Illustrator 23.0.1, SVG Export Plug-In . SVG Version: 6.00 Build 0)  -->
<svg version="1.1" id="Capa_1" xmlns="http://www.w3.org/2000/svg" xmlns:xlink="http://www.w3.org/1999/xlink" x="0px" y="0px"
	 viewBox="0 0 51.8 60" style="enable-background:new 0 0 51.8 60;" xml:space="preserve">
<style type="text/css">
	.st0{fill:#333333;}
</style>
<g>
	<g>
		<g>
			<path class="st0" d="M31.9,10.2C31.9,10.2,31.9,10.2,31.9,10.2c-1.6-1.5-4-1.5-5.6,0L26,10.5l-0.3-0.3c-1.5-1.5-4-1.5-5.5,0
				c-1.5,1.5-1.5,3.9,0,5.5c0,0,0,0,0,0l5.2,5.1c0.4,0.4,1,0.4,1.4,0l5.2-5.1C33.4,14.1,33.4,11.7,31.9,10.2z M30.5,14.2
				C30.5,14.2,30.4,14.2,30.5,14.2L26,18.6l-4.4-4.4c-0.7-0.7-0.7-1.9,0-2.6c0,0,0,0,0,0c0.8-0.7,2-0.7,2.7,0l1,1
				c0.4,0.4,1,0.4,1.4,0l1-1c0.8-0.7,2-0.7,2.7,0C31.2,12.3,31.2,13.5,30.5,14.2z"/>
		</g>
	</g>
	<g>
		<g>
			<path class="st0" d="M39.4,11.6l-1.9-0.9c-0.1-0.3-0.2-0.7-0.3-1L38.2,8c0.2-0.3,0.2-0.7,0-1c-0.5-0.9-1.1-1.8-1.8-2.6
				c-0.2-0.3-0.6-0.4-1-0.3l-2,0.5c-0.3-0.2-0.5-0.4-0.8-0.6l-0.2-2.1c0-0.4-0.3-0.7-0.6-0.8c-0.9-0.4-1.9-0.8-3-1
				c-0.4-0.1-0.7,0-1,0.3L26.5,2h-0.9l-1.4-1.6c-0.2-0.3-0.6-0.4-1-0.3c-1,0.2-2,0.5-3,1c-0.3,0.1-0.5,0.5-0.6,0.8L19.5,4
				c-0.3,0.2-0.5,0.4-0.8,0.6l-2-0.5c-0.4-0.1-0.7,0-1,0.3C15,5.2,14.3,6,13.8,7c-0.2,0.3-0.2,0.7,0,1l1.1,1.8
				c-0.1,0.3-0.2,0.6-0.3,1l-2,0.9c-0.4,0.2-0.6,0.5-0.6,0.9v2.9c0,0.4,0.2,0.8,0.6,0.9l2,0.9c0.1,0.3,0.2,0.7,0.3,1l-1.1,1.8
				c-0.2,0.3-0.2,0.7,0,1c0.5,0.9,1.1,1.8,1.8,2.6c0.2,0.3,0.6,0.4,1,0.3l2-0.5c0.3,0.2,0.5,0.4,0.8,0.6l0.2,2.1
				c0,0.4,0.3,0.7,0.6,0.8c0.9,0.4,1.9,0.8,3,1c0.4,0.1,0.7,0,1-0.3l1.4-1.6h0.9l1.4,1.6c0.2,0.2,0.5,0.3,0.8,0.3c0.1,0,0.1,0,0.2,0
				c1-0.2,2-0.5,3-1c0.3-0.1,0.5-0.5,0.6-0.8l0.2-2.1c0.3-0.2,0.5-0.4,0.8-0.6l2,0.5c0.4,0.1,0.7,0,1-0.3c0.7-0.8,1.3-1.6,1.8-2.6
				c0.2-0.3,0.2-0.7,0-1l-1.1-1.8c0.1-0.3,0.2-0.6,0.3-1l1.9-0.9c0.4-0.2,0.6-0.5,0.6-0.9v-2.9C40,12.1,39.8,11.8,39.4,11.6z
				 M38,14.8l-1.8,0.8c-0.3,0.1-0.5,0.4-0.6,0.7c-0.1,0.6-0.3,1.1-0.5,1.6c-0.1,0.3-0.1,0.6,0.1,0.9l1,1.8c-0.3,0.4-0.6,0.9-0.9,1.3
				l-1.9-0.4c-0.3-0.1-0.6,0-0.9,0.2c-0.4,0.4-0.9,0.7-1.3,1c-0.3,0.2-0.4,0.4-0.5,0.8l-0.2,2c-0.5,0.2-1,0.4-1.4,0.5l-1.3-1.5
				C27.5,24.2,27.2,24,27,24h-1.8c-0.3,0-0.6,0.1-0.8,0.3L23,25.9c-0.5-0.1-1-0.3-1.4-0.5l-0.2-2c0-0.3-0.2-0.6-0.5-0.8
				c-0.5-0.3-0.9-0.6-1.3-1c-0.2-0.2-0.6-0.3-0.9-0.2l-1.9,0.4c-0.3-0.4-0.6-0.8-0.9-1.3l1-1.8c0.2-0.3,0.2-0.6,0.1-0.9
				c-0.2-0.5-0.4-1.1-0.5-1.6c-0.1-0.3-0.3-0.6-0.6-0.7L14,14.8v-1.6l1.9-0.8c0.3-0.1,0.5-0.4,0.6-0.7c0.1-0.6,0.3-1.1,0.5-1.6
				c0.1-0.3,0.1-0.6-0.1-0.9l-1-1.8c0.3-0.4,0.6-0.9,0.9-1.3l1.9,0.4c0.3,0.1,0.6,0,0.9-0.2c0.4-0.4,0.9-0.7,1.3-1
				c0.3-0.2,0.4-0.4,0.5-0.8l0.2-2c0.5-0.2,1-0.4,1.4-0.5l1.3,1.5C24.6,3.9,24.8,4,25.1,4H27c0.3,0,0.6-0.1,0.8-0.3L29,2.1
				c0.5,0.1,1,0.3,1.4,0.5l0.2,2c0,0.3,0.2,0.6,0.5,0.8c0.5,0.3,0.9,0.6,1.3,1c0.2,0.2,0.6,0.3,0.9,0.2l1.9-0.4
				c0.3,0.4,0.6,0.8,0.9,1.3l-1,1.8C35,9.5,35,9.8,35.1,10.1c0.2,0.5,0.4,1.1,0.5,1.6c0.1,0.3,0.3,0.6,0.6,0.7l1.8,0.8L38,14.8
				L38,14.8z"/>
		</g>
	</g>
	<g>
		<g>
			<path class="st0" d="M49.5,27.6c-2.1-1.1-4.7-0.4-5.9,1.7l-3,5.4c-0.5,0.5-1.1,0.9-1.8,1.2L25.1,40c-0.3,0.1-0.6,0.1-0.9-0.1
				c-0.3-0.2-0.5-0.4-0.6-0.7c-0.2-0.6,0.2-1.3,0.8-1.4l6.2-1.9c1.7-0.5,2.7-2.2,2.3-3.9c-0.4-1.7-2.2-2.8-3.9-2.4
				c-0.1,0-0.1,0-0.2,0l-13.2,4c-4.6,1.3-8.4,4.7-10,9.3L0.1,58.6c-0.2,0.5,0.1,1.1,0.6,1.3C0.8,60,0.9,60,1,60l13,0h0
				c0.5,0,0.9-0.3,1-0.8l0.7-3.3c0.2-1.4,1.2-2.5,2.5-3l26.1-8.6c0.9-0.3,1.7-0.9,2.1-1.8l4.8-9C52.4,31.4,51.6,28.8,49.5,27.6z
				 M49.5,32.6C49.5,32.6,49.5,32.6,49.5,32.6l-4.9,9c-0.2,0.4-0.6,0.7-1,0.8L17.5,51c-2,0.7-3.5,2.4-3.9,4.5L13.2,58L2.4,58
				l5.2-14.5c1.4-3.9,4.6-6.9,8.7-8l13.2-4c0.3-0.1,0.7-0.1,0.9,0.1c0.3,0.2,0.5,0.5,0.6,0.8c0.1,0.7-0.3,1.3-1,1.5l-6.1,1.9
				c-1.7,0.5-2.7,2.3-2.2,4c0.2,0.8,0.8,1.5,1.5,1.9c0.7,0.4,1.6,0.5,2.4,0.3l13.6-4.1c1.1-0.3,2.1-1,2.8-1.8c0,0,0.1-0.1,0.1-0.2
				l3.1-5.5c0.6-1.1,2-1.5,3.1-1h0C49.6,29.9,50.1,31.4,49.5,32.6z"/>
		</g>
	</g>
</g>
</svg>
