<?xml version="1.0" encoding="utf-8"?>
<!-- Generator: Adobe Illustrator 23.0.1, SVG Export Plug-In . SVG Version: 6.00 Build 0)  -->
<svg version="1.1" id="Capa_1" xmlns="http://www.w3.org/2000/svg" xmlns:xlink="http://www.w3.org/1999/xlink" x="0px" y="0px"
	 viewBox="0 0 60 58.8" style="enable-background:new 0 0 60 58.8;" xml:space="preserve">
<style type="text/css">
	.st0{fill:#333333;}
</style>
<g>
	<g>
		<g>
			<path class="st0" d="M49.5,31.1c-0.5,0-0.9,0.4-0.9,0.9c0,0.6-0.5,1.1-1.1,1.1c-0.6,0-1.1-0.5-1.1-1.1c0-0.5-0.4-0.9-0.9-0.9
				c-0.5,0-0.9,0.4-0.9,0.9c0,1.6,1.3,2.9,2.9,2.9c1.6,0,2.9-1.3,2.9-2.9C50.4,31.5,50,31.1,49.5,31.1z"/>
		</g>
	</g>
	<g>
		<g>
			<path class="st0" d="M57.7,31.3l-2.5-0.8c-0.3-0.1-0.6-0.4-0.7-0.7c-0.5-1.6-1.3-3.2-2.3-4.6c-0.5-0.6-1-1.2-1.6-1.8
				c0.4-1.6,0.6-3.4,0.5-4.9c0-2.2-0.5-3.5-1.4-4c-0.5-0.2-1.9-1-9.7,2.6c-0.2,0.1-0.4,0.2-0.5,0.3c-0.5-0.1-1.1-0.3-1.6-0.4
				c-0.1,0-0.1,0-0.2,0c0.6-1.4,1-2.9,1.1-4.4c0-0.5-0.4-0.9-0.8-0.9c-0.5,0-0.9,0.4-0.9,0.8c-0.1,2.5-1.2,4.9-3,6.7
				c-1.1,1.1-2.3,1.9-3.7,2.3c-2.3-0.3-4.7-0.3-7,0c-1.3-0.5-2.6-1.3-3.7-2.3c-1.9-1.9-3-4.5-3-7.2c0-2.7,1.1-5.3,3-7.2
				c1.9-1.9,4.5-3,7.2-3c2.7,0,5.3,1.1,7.2,3c0.8,0.8,1.4,1.7,1.9,2.6c0.2,0.4,0.7,0.6,1.2,0.4c0.4-0.2,0.6-0.7,0.4-1.2
				c-0.6-1.1-1.3-2.2-2.2-3.1C33.2,1.2,30.2,0,27,0s-6.2,1.2-8.4,3.5c-2.3,2.3-3.5,5.2-3.5,8.4s1.2,6.2,3.5,8.4
				c0.6,0.6,1.4,1.2,2.1,1.7c0,0,0,0,0,0c-0.5,0.1-1.1,0.3-1.6,0.5c-0.5,0.2-0.7,0.6-0.6,1.1c0.2,0.5,0.6,0.7,1.1,0.6
				c4.8-1.6,10-1.6,14.8,0c0.1,0,0.2,0,0.3,0c0.4,0,0.7-0.2,0.8-0.6c0.2-0.5-0.1-1-0.6-1.1c-0.5-0.2-1.1-0.3-1.6-0.5c0,0,0,0,0,0
				c0.7-0.5,1.5-1,2.1-1.7c0.6-0.6,1.1-1.2,1.5-1.9c0.2,0,0.5,0.1,0.7,0.1c0.3,0.1,0.6,0.1,0.9,0.2c0,0,0,0.1,0,0.1
				c-0.4,2-0.4,3.8,0.1,5.3c0.4,1.4,1.2,2.4,2.3,3.3c1.3,1,2.9,1.4,4.3,1.4c1.1,0,2.1-0.2,2.8-0.6c0.8-0.5,1.5-1.4,2.1-2.9
				c0.3,0.3,0.5,0.6,0.7,0.9c0.9,1.2,1.6,2.6,2.1,4.1c0.3,0.9,0.9,1.5,1.8,1.8l2.5,0.8c0.6,0.2,1.1,0.8,1.1,1.5v4.1
				c0,0.7-0.4,1.3-1.1,1.5l-4,1.3c-0.6,0.2-1.2,0.6-1.5,1.2c-1.6,2.7-4,4.9-7.3,6.6c-0.4,0.2-0.6,0.5-0.7,1l-1.3,6.7
				c0,0.2-0.2,0.3-0.4,0.3h-4.1c-0.2,0-0.4-0.1-0.4-0.3L36.9,53c-0.1-0.7-0.8-1.2-1.6-1.1c-1.8,0.3-3.6,0.4-5.4,0.4
				c-1.4,0-2.7-0.1-4-0.2c-0.7-0.1-1.4,0.4-1.5,1.1l-0.7,3.5c0,0.2-0.2,0.3-0.4,0.3h-4.1c-0.2,0-0.4-0.1-0.4-0.3l-1.2-6.3
				c-0.1-0.4-0.3-0.8-0.7-1c-5.6-3-8.5-7.9-8.5-14.4c0-3.2,0.7-6.1,2.1-8.5c1.3-2.3,3.2-4.1,5.7-5.5c0.4-0.2,0.6-0.8,0.3-1.2
				c-0.2-0.4-0.8-0.6-1.2-0.3c-4.8,2.8-7.6,7-8.4,12.4v0c-0.1,0-0.2,0-0.3,0c0-0.6-0.1-1.2-0.3-1.7c-0.5-1.3-1.5-2.2-2.7-2.3
				c-0.9-0.1-1.7,0.3-2.3,1c-0.8,1.1-0.7,2-0.4,2.5c0.4,0.9,1.6,1.5,3.4,2c-0.1,0.1-0.1,0.2-0.2,0.2c-1.1,1.4-2.4,1.7-3.3,1.7
				c-0.5,0-0.9,0.4-0.9,0.9v0c0,0.5,0.4,0.9,0.9,0.9c0.1,0,0.1,0,0.2,0c1.1,0,2.8-0.4,4.4-2.5c0.3-0.3,0.5-0.7,0.6-1
				c0.2,0,0.3,0,0.5,0c0,0,0,0,0,0c0,0.5,0,1,0,1.4c0,3.6,0.9,6.9,2.6,9.6c1.6,2.5,3.8,4.6,6.7,6.2l1.2,6.2c0.2,1,1.1,1.7,2.1,1.7
				h4.1c1,0,1.9-0.7,2.1-1.7l0.6-3.2c1.3,0.1,2.6,0.2,3.9,0.2c1.8,0,3.6-0.1,5.4-0.4l0.6,3.4c0.2,1,1.1,1.7,2.1,1.7h4.1
				c1,0,1.9-0.7,2.1-1.7l1.2-6.5c3.5-1.8,6.1-4.3,7.8-7.2c0.1-0.2,0.3-0.4,0.5-0.4l4-1.3c1.4-0.4,2.3-1.7,2.3-3.1v-4.1
				C60,33,59.1,31.7,57.7,31.3z M49.4,20.9c-0.3,2.9-1.2,5.3-2.1,5.8c-1,0.6-3.4,0.7-5.2-0.6c-1.8-1.3-2.4-3.7-1.7-6.8c0,0,0,0,0,0
				c0.1-0.3,0.3-0.6,0.6-0.7c4.4-2,6.9-2.7,7.8-2.7c0.1,0,0.2,0,0.3,0C49.3,16.3,49.7,18,49.4,20.9z M2.5,30.6
				c-0.1-0.2,0.1-0.5,0.3-0.7c0.2-0.3,0.4-0.3,0.6-0.3c0,0,0.1,0,0.1,0c0.4,0.1,1,0.5,1.3,1.2c0.1,0.2,0.2,0.5,0.2,0.8
				C3.6,31.4,2.7,31,2.5,30.6z"/>
		</g>
	</g>
	<g>
		<g>
			<path class="st0" d="M27.9,10.9V7.8c1.1,0.1,1.5,0.6,1.8,0.6c0.5,0,0.7-0.6,0.7-0.9c0-0.8-1.5-1.1-2.5-1.1V6
				c0-0.2-0.2-0.4-0.5-0.4C27.2,5.6,27,5.8,27,6v0.4C25.5,6.6,24,7.3,24,9.3c0,2,1.5,2.5,2.9,3v3.6c-1.6-0.1-2-1.2-2.5-1.2
				c-0.4,0-0.7,0.5-0.7,0.9c0,0.8,1.3,1.8,3.2,1.8l0,0v0.5c0,0.2,0.2,0.4,0.4,0.4c0.2,0,0.5-0.2,0.5-0.4v-0.5
				c1.7-0.2,2.8-1.3,2.8-3.2C30.7,12.1,29.2,11.4,27.9,10.9z M27.1,10.6c-0.8-0.3-1.5-0.6-1.5-1.5c0-0.8,0.6-1.2,1.5-1.3V10.6z
				 M27.8,15.9v-3.2c0.8,0.3,1.4,0.8,1.4,1.7C29.1,15.2,28.6,15.7,27.8,15.9z"/>
		</g>
	</g>
</g>
</svg>
