<?xml version="1.0" encoding="utf-8"?>
<!-- Generator: Adobe Illustrator 23.0.1, SVG Export Plug-In . SVG Version: 6.00 Build 0)  -->
<svg version="1.1" id="Capa_1" xmlns="http://www.w3.org/2000/svg" xmlns:xlink="http://www.w3.org/1999/xlink" x="0px" y="0px"
	 viewBox="0 0 30 30" style="enable-background:new 0 0 30 30;" xml:space="preserve">
<style type="text/css">
	.st0{opacity:0.3;}
	.st1{fill:#333333;}
</style>
<g class="st0">
	<g>
		<g>
			<path class="st1" d="M29.5,7.6c-3.9-4.1-9-6.3-14.5-6.3S4.4,3.5,0.5,7.6c-0.7,0.7-0.7,1.9,0,2.6l2.9,3c0.7,0.7,1.9,0.7,2.6,0
				c1-1,2.1-1.9,3.3-2.5c0.6-0.3,1-1,1-1.6l0.4-3.3c3.2-1,5.6-1,8.8,0l0.4,3.2c0,0.7,0.4,1.3,1,1.7c1.2,0.6,2.3,1.5,3.3,2.5
				c0.3,0.4,0.8,0.6,1.3,0.6c0.5,0,0.9-0.2,1.3-0.6l2.9-3C30.2,9.4,30.2,8.3,29.5,7.6z"/>
			<path class="st1" d="M23.1,12.9c-0.5-1-1.6-1.7-2.8-1.7H9.6c-1.2,0-2.2,0.6-2.8,1.7l-4,7.5c-0.2,0.5-0.4,1-0.4,1.5v4.4
				c0,1.4,1.1,2.5,2.5,2.5h20c1.4,0,2.5-1.1,2.5-2.5v-4.4c0-0.5-0.1-1-0.4-1.5L23.1,12.9z M11.2,25c-0.7,0-1.2-0.6-1.2-1.2
				c0-0.7,0.6-1.2,1.2-1.2c0.7,0,1.2,0.6,1.2,1.2C12.5,24.4,11.9,25,11.2,25z M11.2,21.3c-0.7,0-1.2-0.6-1.2-1.2
				c0-0.7,0.6-1.2,1.2-1.2c0.7,0,1.2,0.6,1.2,1.2C12.5,20.7,11.9,21.3,11.2,21.3z M11.2,17.5c-0.7,0-1.2-0.6-1.2-1.2
				c0-0.7,0.6-1.2,1.2-1.2c0.7,0,1.2,0.6,1.2,1.2C12.5,16.9,11.9,17.5,11.2,17.5z M15,25c-0.7,0-1.2-0.6-1.2-1.2
				c0-0.7,0.6-1.2,1.2-1.2c0.7,0,1.2,0.6,1.2,1.2C16.3,24.4,15.7,25,15,25z M15,21.3c-0.7,0-1.2-0.6-1.2-1.2c0-0.7,0.6-1.2,1.2-1.2
				c0.7,0,1.2,0.6,1.2,1.2C16.3,20.7,15.7,21.3,15,21.3z M15,17.5c-0.7,0-1.2-0.6-1.2-1.2c0-0.7,0.6-1.2,1.2-1.2
				c0.7,0,1.2,0.6,1.2,1.2C16.3,16.9,15.7,17.5,15,17.5z M18.7,25c-0.7,0-1.2-0.6-1.2-1.2c0-0.7,0.6-1.2,1.2-1.2
				c0.7,0,1.2,0.6,1.2,1.2C20,24.4,19.4,25,18.7,25z M18.7,21.3c-0.7,0-1.2-0.6-1.2-1.2c0-0.7,0.6-1.2,1.2-1.2
				c0.7,0,1.2,0.6,1.2,1.2C20,20.7,19.4,21.3,18.7,21.3z M18.7,17.5c-0.7,0-1.2-0.6-1.2-1.2c0-0.7,0.6-1.2,1.2-1.2
				c0.7,0,1.2,0.6,1.2,1.2C20,16.9,19.4,17.5,18.7,17.5z"/>
		</g>
	</g>
</g>
</svg>
