<?xml version="1.0" encoding="utf-8"?>
<!-- Generator: Adobe Illustrator 23.0.1, SVG Export Plug-In . SVG Version: 6.00 Build 0)  -->
<svg version="1.1" id="Capa_1" xmlns="http://www.w3.org/2000/svg" xmlns:xlink="http://www.w3.org/1999/xlink" x="0px" y="0px"
	 viewBox="0 0 50 50" style="enable-background:new 0 0 50 50;" xml:space="preserve">
<style type="text/css">
	.st0{opacity:0.3;}
	.st1{fill:#333333;}
</style>
<g class="st0">
	<g>
		<g>
			<path class="st1" d="M32.9,15.2c1-0.3,1.7-1.2,1.7-2.3c0-1.2-0.8-2.1-1.9-2.4c2.8-2.5,4.4-6,4.4-9.7V0h-0.8
				c-3.3,0-6.5,1.3-8.9,3.5c-0.5-0.9-1.1-1.7-1.8-2.4L25,0.6l-0.6,0.6c-0.7,0.7-1.3,1.5-1.8,2.4C20.2,1.3,17,0,13.7,0h-0.8v0.8
				c0,3.7,1.6,7.3,4.4,9.7c-1.1,0.2-2,1.2-2,2.4c0,1.1,0.7,2,1.7,2.3c-5.2,4.2-9,12.1-9,19.5C8.1,44.1,14.5,50,25,50
				c10.4,0,16.9-5.9,16.9-15.3C41.9,27.3,38.2,19.4,32.9,15.2z M14.5,1.6c2.9,0.2,5.7,1.6,7.7,3.8L23,6.4l0.5-1.1
				c0.4-0.8,0.9-1.6,1.5-2.3c0.6,0.7,1.1,1.5,1.5,2.3L27,6.3l0.8-0.9c2-2.2,4.7-3.6,7.7-3.8c-0.2,3.4-2,6.5-4.8,8.5
				c-0.2,0.1-0.3,0.2-0.5,0.3H19.8c-0.2-0.1-0.4-0.3-0.6-0.4C16.5,8.1,14.8,5,14.5,1.6z M16.9,12.9c0-0.4,0.4-0.8,0.8-0.8h14.5
				c0.4,0,0.8,0.4,0.8,0.8c0,0.4-0.4,0.8-0.8,0.8H17.7C17.3,13.7,16.9,13.3,16.9,12.9z M25,48.4c-7.4,0-15.3-3.6-15.3-13.7
				c0-7.5,4.4-16,10-19.4h10.7c5.6,3.4,10,11.8,10,19.4C40.3,44.8,32.4,48.4,25,48.4z"/>
		</g>
	</g>
	<g>
		<g>
			<path class="st1" d="M25,31c-0.9,0-1.6-0.7-1.6-1.6s0.7-1.6,1.6-1.6c0.9,0,1.6,0.7,1.6,1.6h1.6c0-1.5-1-2.7-2.4-3.1V25h-1.6v1.3
				c-1.4,0.4-2.4,1.6-2.4,3.1c0,1.8,1.4,3.2,3.2,3.2c0.9,0,1.6,0.7,1.6,1.6c0,0.9-0.7,1.6-1.6,1.6c-0.9,0-1.6-0.7-1.6-1.6h-1.6
				c0,1.5,1,2.7,2.4,3.1v1.3h1.6v-1.3c1.4-0.4,2.4-1.6,2.4-3.1C28.2,32.5,26.8,31,25,31z"/>
		</g>
	</g>
	<g>
		<g>
			<path class="st1" d="M25,21.8c-5.6,0-10.1,4.5-10.1,10.1S19.4,41.9,25,41.9s10.1-4.5,10.1-10.1C35.1,26.3,30.6,21.8,25,21.8z
				 M25,40.3c-4.7,0-8.5-3.8-8.5-8.5s3.8-8.5,8.5-8.5s8.5,3.8,8.5,8.5S29.7,40.3,25,40.3z"/>
		</g>
	</g>
</g>
</svg>
