<?xml version="1.0" encoding="utf-8"?>
<!-- Generator: Adobe Illustrator 23.0.1, SVG Export Plug-In . SVG Version: 6.00 Build 0)  -->
<svg version="1.1" id="Capa_1" xmlns="http://www.w3.org/2000/svg" xmlns:xlink="http://www.w3.org/1999/xlink" x="0px" y="0px"
	 viewBox="0 0 50 50" style="enable-background:new 0 0 50 50;" xml:space="preserve">
<style type="text/css">
	.st0{opacity:0.3;}
	.st1{fill:#333333;}
</style>
<g class="st0">
	<g>
		<path class="st1" d="M49.9,30.5L49.9,30.5l-8.2-17.9l2-1L43,10.1l-1.9,1l-0.3-0.6c-0.2-0.4-0.7-0.6-1.1-0.4
			c-0.2,0.1-0.3,0.2-0.4,0.4L39,11c-1.4-0.7-3-1-4.5-1h-7V8.3h1.7V6.7h-1.4l0.6-2.4c0.5-1.8-0.7-3.7-2.5-4.2
			c-1.8-0.5-3.7,0.7-4.2,2.5c-0.1,0.5-0.1,1.1,0,1.7l0.6,2.4h-1.4v1.7h1.7V10h-7c-1.6,0-3.1,0.3-4.5,1l-0.2-0.5
			c-0.2-0.4-0.7-0.6-1.1-0.4c-0.2,0.1-0.3,0.2-0.4,0.4L9,11.1l-1.9-1l-0.7,1.5l2,1L0.1,30.5C0,30.6,0,30.7,0,30.8
			c0,3.2,2.6,5.8,5.8,5.8h8.3c3.2,0,5.8-2.6,5.8-5.8c0-0.1,0-0.2-0.1-0.3l-8.2-18c1.2-0.6,2.5-0.8,3.8-0.8h7v30.5L19.7,45h-3
			c-2.3,0-4.2,1.9-4.2,4.2c0,0.5,0.4,0.8,0.8,0.8h23.3c0.5,0,0.8-0.4,0.8-0.8c0-2.3-1.9-4.2-4.2-4.2h-3l-2.8-2.8V11.7h7
			c1.3,0,2.6,0.3,3.8,0.8l-8.2,18C30,30.6,30,30.7,30,30.8c0,3.2,2.6,5.8,5.8,5.8h8.3c3.2,0,5.8-2.6,5.8-5.8
			C50,30.7,50,30.6,49.9,30.5z M14.2,35H5.8c-2,0-3.7-1.4-4.1-3.3h16.5C17.9,33.6,16.1,35,14.2,35z M17.9,30H2.1l7.7-16.7
			c0.1,0,0.3,0,0.4,0L17.9,30z M23.6,2.3c0.6-0.8,1.8-0.9,2.6-0.2c0.1,0.1,0.2,0.1,0.2,0.2c0.3,0.4,0.5,1,0.3,1.5L26,6.7h-2
			l-0.7-2.8C23.1,3.3,23.3,2.8,23.6,2.3z M24.2,10V8.3h1.7V10H24.2z M25.8,11.7v30h-1.7v-30H25.8z M33.3,46.7c1.1,0,2,0.7,2.4,1.7
			H14.3c0.4-1,1.3-1.7,2.4-1.7H33.3z M28,45h-6l1.7-1.7h2.6L28,45z M39.8,13.3c0.1,0,0.3,0,0.4,0L47.9,30H32.1L39.8,13.3z M44.2,35
			h-8.3c-2,0-3.7-1.4-4.1-3.3h16.5C47.9,33.6,46.1,35,44.2,35z"/>
	</g>
</g>
</svg>
