<?xml version="1.0" encoding="utf-8"?>
<!-- Generator: Adobe Illustrator 23.0.1, SVG Export Plug-In . SVG Version: 6.00 Build 0)  -->
<svg version="1.1" id="Layer_1" xmlns="http://www.w3.org/2000/svg" xmlns:xlink="http://www.w3.org/1999/xlink" x="0px" y="0px"
	 viewBox="0 0 50 50" style="enable-background:new 0 0 50 50;" xml:space="preserve">
<style type="text/css">
	.st0{opacity:0.3;}
	.st1{fill:#333333;}
</style>
<g class="st0">
	<path class="st1" d="M32.3,18.4c0-7.6-6.2-13.9-13.9-13.9S4.5,10.8,4.5,18.4c0,7.6,6.2,13.9,13.9,13.9S32.3,26,32.3,18.4z
		 M30.3,18.4c0,6.6-5.3,11.9-11.9,11.9S6.5,25,6.5,18.4S11.8,6.5,18.4,6.5S30.3,11.8,30.3,18.4z"/>
	<path class="st1" d="M29,33.9l3,3l-0.4,0.4c-0.2,0.2-0.3,0.4-0.3,0.7s0.1,0.5,0.3,0.7l9.9,9.9c0.9,0.9,2.2,1.5,3.5,1.5
		s2.6-0.5,3.5-1.5S50,46.4,50,45s-0.5-2.6-1.5-3.5l-9.9-9.9c-0.4-0.4-1-0.4-1.4,0l-0.4,0.4l-3-3c2-3,3.2-6.6,3.2-10.5
		C37.1,8.3,28.8,0,18.5,0S0,8.3,0,18.5s8.3,18.5,18.5,18.5C22.4,37.1,26,35.9,29,33.9z M35.1,18.5c0,9.2-7.4,16.6-16.6,16.6
		C9.4,35.1,2,27.7,2,18.5S9.4,2,18.5,2C27.7,2,35.1,9.4,35.1,18.5z M33.7,38l3.9-3.9c0,0,0,0,0,0l0.4-0.4l9.2,9.2
		c1.2,1.2,1.2,3.1,0,4.3C46.6,47.7,45.8,48,45,48s-1.6-0.3-2.1-0.9L33.7,38z M30.6,32.7c0.7-0.6,1.4-1.3,2.1-2.1l2.9,2.9l-2.1,2.1
		L30.6,32.7z"/>
	<path class="st1" d="M15.1,15.8c0.5,0,1-0.4,1-1c0-0.7,0.3-1.3,0.8-1.8c0.5-0.5,1.2-0.7,1.9-0.6c1.1,0.1,2,1,2.1,2.1
		c0.1,1-0.4,1.9-1.2,2.3c-1.3,0.7-2.1,2.1-2.1,3.5v1.4c0,0.5,0.4,1,1,1c0.5,0,1-0.4,1-1v-1.4c0-0.7,0.4-1.4,1.1-1.8
		c1.5-0.9,2.4-2.5,2.2-4.3c-0.2-2-1.8-3.6-3.8-3.8c-1.2-0.1-2.5,0.3-3.4,1.1c-0.9,0.8-1.4,2-1.4,3.2C14.1,15.4,14.5,15.8,15.1,15.8z
		"/>
	<path class="st1" d="M18.4,24.7c-0.3,0-0.5,0.1-0.7,0.3s-0.3,0.4-0.3,0.7c0,0.3,0.1,0.5,0.3,0.7c0.2,0.2,0.4,0.3,0.7,0.3
		c0.3,0,0.5-0.1,0.7-0.3c0.2-0.2,0.3-0.4,0.3-0.7s-0.1-0.5-0.3-0.7C18.9,24.8,18.7,24.7,18.4,24.7z"/>
</g>
</svg>
